<?xml version="1.0" encoding="UTF-8" standalone="no"?>
<!DOCTYPE svg PUBLIC "-//W3C//DTD SVG 1.1//EN" "http://www.w3.org/Graphics/SVG/1.1/DTD/svg11.dtd">
<svg width="100%" height="100%" viewBox="0 0 2268 1512" version="1.1" xmlns="http://www.w3.org/2000/svg" xmlns:xlink="http://www.w3.org/1999/xlink" xml:space="preserve" xmlns:serif="http://www.serif.com/" style="fill-rule:evenodd;clip-rule:evenodd;stroke-linecap:round;stroke-linejoin:round;stroke-miterlimit:1.5;">
    <g transform="matrix(1,0,0,1,0,-1550.7)">
        <g transform="matrix(1,0,0,1,-4668.38,1550.7)">
            <rect id="Bits-Holder" serif:id="Bits Holder" x="4668.38" y="0" width="2267.71" height="1511.81" style="fill:none;"/>
            <g id="Bits-Holder1" serif:id="Bits Holder">
                <g id="Bit-Tabs" serif:id="Bit Tabs" transform="matrix(-1,1.22465e-16,-1.22465e-16,-1,9764.4,839.04)">
                    <g transform="matrix(0.869495,-0.493942,0.493942,0.869495,385.298,2424.74)">
                        <g transform="matrix(1,0,5.55112e-17,0.733055,4317.78,-1084.97)">
                            <rect x="451.779" y="2147.89" width="78.405" height="15.468" style="fill:rgb(255,0,0);fill-opacity:0;stroke:rgb(255,0,0);stroke-width:3.04px;"/>
                        </g>
                        <g transform="matrix(1,0,5.55112e-17,0.733055,4491.66,-1084.97)">
                            <rect x="451.779" y="2147.89" width="78.405" height="15.468" style="fill:rgb(255,0,0);fill-opacity:0;stroke:rgb(255,0,0);stroke-width:3.04px;"/>
                        </g>
                    </g>
                    <g transform="matrix(0.869495,-0.493942,0.493942,0.869495,385.298,2394.24)">
                        <g transform="matrix(1,0,5.55112e-17,0.733055,4317.78,-1084.97)">
                            <rect x="451.779" y="2147.89" width="78.405" height="15.468" style="fill:rgb(255,0,0);fill-opacity:0;stroke:rgb(255,0,0);stroke-width:3.04px;"/>
                        </g>
                        <g transform="matrix(1,0,5.55112e-17,0.733055,4491.66,-1084.97)">
                            <rect x="451.779" y="2147.89" width="78.405" height="15.468" style="fill:rgb(255,0,0);fill-opacity:0;stroke:rgb(255,0,0);stroke-width:3.04px;"/>
                        </g>
                    </g>
                </g>
                <g id="Side" transform="matrix(-1,1.22465e-16,-1.22465e-16,-1,5096.03,2393.74)">
                    <path d="M70.916,2094.03L70.916,2081.44L59.578,2081.44L59.578,2033.56L365.286,1859.89L365.72,1859.89L365.72,1908.99L377.058,1908.99L377.058,1958.08L365.72,1958.08L365.72,2007.18L377.058,2007.18L377.058,2056.27L365.72,2056.27L365.72,2094.03L326.096,2094.03L326.096,2105.37L269.403,2105.37L269.403,2094.03L167.355,2094.03L167.355,2105.37L110.663,2105.37L110.663,2094.03L70.916,2094.03Z" style="fill:rgb(255,0,0);fill-opacity:0;stroke:rgb(255,0,0);stroke-width:2.67px;"/>
                </g>
                <g id="Bit-Tabs1" serif:id="Bit Tabs" transform="matrix(1,0,0,1,4.84041,60.7255)">
                    <g transform="matrix(0.869495,-0.493942,0.493942,0.869495,385.298,2424.74)">
                        <g transform="matrix(1,0,5.55112e-17,0.733055,4317.78,-1084.97)">
                            <rect x="451.779" y="2147.89" width="78.405" height="15.468" style="fill:rgb(255,0,0);fill-opacity:0;stroke:rgb(255,0,0);stroke-width:3.04px;"/>
                        </g>
                        <g transform="matrix(1,0,5.55112e-17,0.733055,4491.66,-1084.97)">
                            <rect x="451.779" y="2147.89" width="78.405" height="15.468" style="fill:rgb(255,0,0);fill-opacity:0;stroke:rgb(255,0,0);stroke-width:3.04px;"/>
                        </g>
                    </g>
                    <g transform="matrix(0.869495,-0.493942,0.493942,0.869495,385.298,2394.24)">
                        <g transform="matrix(1,0,5.55112e-17,0.733055,4317.78,-1084.97)">
                            <rect x="451.779" y="2147.89" width="78.405" height="15.468" style="fill:rgb(255,0,0);fill-opacity:0;stroke:rgb(255,0,0);stroke-width:3.04px;"/>
                        </g>
                        <g transform="matrix(1,0,5.55112e-17,0.733055,4491.66,-1084.97)">
                            <rect x="451.779" y="2147.89" width="78.405" height="15.468" style="fill:rgb(255,0,0);fill-opacity:0;stroke:rgb(255,0,0);stroke-width:3.04px;"/>
                        </g>
                    </g>
                </g>
                <g id="Side1" serif:id="Side" transform="matrix(1,0,0,1,4673.22,-1493.97)">
                    <path d="M70.916,2094.03L70.916,2081.44L59.578,2081.44L59.578,2033.56L365.286,1859.89L365.72,1859.89L365.72,1908.99L377.058,1908.99L377.058,1958.08L365.72,1958.08L365.72,2007.18L377.058,2007.18L377.058,2056.27L365.72,2056.27L365.72,2094.03L326.096,2094.03L326.096,2105.37L269.403,2105.37L269.403,2094.03L167.355,2094.03L167.355,2105.37L110.663,2105.37L110.663,2094.03L70.916,2094.03Z" style="fill:rgb(255,0,0);fill-opacity:0;stroke:rgb(255,0,0);stroke-width:2.67px;"/>
                </g>
                <g id="Front" transform="matrix(-1,1.22465e-16,-1.22465e-16,-1,5266.39,3467.79)">
                    <path d="M218.318,2582.99L218.318,2570.39L229.657,2570.39L229.657,2522.52L524.46,2522.52L524.46,2570.39L535.798,2570.39L535.798,2582.99L484.775,2582.99L484.775,2594.33L428.082,2594.33L428.082,2582.99L326.034,2582.99L326.034,2594.33L269.342,2594.33L269.342,2582.99L218.318,2582.99Z" style="fill:rgb(255,0,0);fill-opacity:0;stroke:rgb(255,0,0);stroke-width:2.67px;"/>
                </g>
                <g id="Back" transform="matrix(1,0,0,1,3961.33,-1225.76)">
                    <path d="M769.256,2078.85L769.256,2041.59L780.594,2041.59L780.594,1992.5L769.256,1992.5L769.256,1943.4L780.594,1943.4L780.594,1894.31L769.256,1894.31L769.256,1845.33L1086.74,1845.33L1086.74,1894.31L1075.4,1894.31L1075.4,1943.4L1086.74,1943.4L1086.74,1992.5L1075.4,1992.5L1075.4,2041.59L1086.74,2041.59L1086.74,2078.85L1035.71,2078.85L1035.71,2090.62L979.02,2090.62L979.02,2078.85L876.972,2078.85L876.972,2090.62L820.279,2090.62L820.279,2078.85L769.256,2078.85Z" style="fill:rgb(255,0,0);fill-opacity:0;stroke:rgb(255,0,0);stroke-width:2.67px;"/>
                </g>
                <g transform="matrix(1,0,0,1,0,3.64624)">
                    <g transform="matrix(1,0,0,1,7.73783,-1.10638)">
                        <g transform="matrix(0.997507,0,0,0.997507,4665.56,-1554.62)">
                            <circle cx="436.529" cy="2211.09" r="13.83" style="fill:rgb(255,0,0);fill-opacity:0;stroke:rgb(255,0,0);stroke-width:2.67px;"/>
                        </g>
                        <g transform="matrix(0.997507,0,0,0.997507,4702.07,-1554.62)">
                            <circle cx="436.529" cy="2211.09" r="13.83" style="fill:rgb(255,0,0);fill-opacity:0;stroke:rgb(255,0,0);stroke-width:2.67px;"/>
                        </g>
                        <g transform="matrix(0.997507,0,0,0.997507,4736.92,-1554.62)">
                            <circle cx="436.529" cy="2211.09" r="13.83" style="fill:rgb(255,0,0);fill-opacity:0;stroke:rgb(255,0,0);stroke-width:2.67px;"/>
                        </g>
                        <g transform="matrix(0.997507,0,0,0.997507,4771.77,-1554.62)">
                            <circle cx="436.529" cy="2211.09" r="13.83" style="fill:rgb(255,0,0);fill-opacity:0;stroke:rgb(255,0,0);stroke-width:2.67px;"/>
                        </g>
                        <g transform="matrix(0.997507,0,0,0.997507,4806.62,-1554.62)">
                            <circle cx="436.529" cy="2211.09" r="13.83" style="fill:rgb(255,0,0);fill-opacity:0;stroke:rgb(255,0,0);stroke-width:2.67px;"/>
                        </g>
                        <g transform="matrix(0.997507,0,0,0.997507,4841.47,-1554.62)">
                            <circle cx="436.529" cy="2211.09" r="13.83" style="fill:rgb(255,0,0);fill-opacity:0;stroke:rgb(255,0,0);stroke-width:2.67px;"/>
                        </g>
                        <g transform="matrix(0.997507,0,0,0.997507,4876.33,-1554.62)">
                            <circle cx="436.529" cy="2211.09" r="13.83" style="fill:rgb(255,0,0);fill-opacity:0;stroke:rgb(255,0,0);stroke-width:2.67px;"/>
                        </g>
                        <g transform="matrix(0.997507,0,0,0.997507,4911.18,-1554.62)">
                            <circle cx="436.529" cy="2211.09" r="13.83" style="fill:rgb(255,0,0);fill-opacity:0;stroke:rgb(255,0,0);stroke-width:2.67px;"/>
                        </g>
                    </g>
                    <g transform="matrix(1,0,0,1,7.73783,36.9057)">
                        <g transform="matrix(0.997507,0,0,0.997507,4665.56,-1554.62)">
                            <circle cx="436.529" cy="2211.09" r="13.83" style="fill:rgb(255,0,0);fill-opacity:0;stroke:rgb(255,0,0);stroke-width:2.67px;"/>
                        </g>
                        <g transform="matrix(0.997507,0,0,0.997507,4702.07,-1554.62)">
                            <circle cx="436.529" cy="2211.09" r="13.83" style="fill:rgb(255,0,0);fill-opacity:0;stroke:rgb(255,0,0);stroke-width:2.67px;"/>
                        </g>
                        <g transform="matrix(0.997507,0,0,0.997507,4736.92,-1554.62)">
                            <circle cx="436.529" cy="2211.09" r="13.83" style="fill:rgb(255,0,0);fill-opacity:0;stroke:rgb(255,0,0);stroke-width:2.67px;"/>
                        </g>
                        <g transform="matrix(0.997507,0,0,0.997507,4771.77,-1554.62)">
                            <circle cx="436.529" cy="2211.09" r="13.83" style="fill:rgb(255,0,0);fill-opacity:0;stroke:rgb(255,0,0);stroke-width:2.67px;"/>
                        </g>
                        <g transform="matrix(0.997507,0,0,0.997507,4806.62,-1554.62)">
                            <circle cx="436.529" cy="2211.09" r="13.83" style="fill:rgb(255,0,0);fill-opacity:0;stroke:rgb(255,0,0);stroke-width:2.67px;"/>
                        </g>
                        <g transform="matrix(0.997507,0,0,0.997507,4841.47,-1554.62)">
                            <circle cx="436.529" cy="2211.09" r="13.83" style="fill:rgb(255,0,0);fill-opacity:0;stroke:rgb(255,0,0);stroke-width:2.67px;"/>
                        </g>
                        <g transform="matrix(0.997507,0,0,0.997507,4876.33,-1554.62)">
                            <circle cx="436.529" cy="2211.09" r="13.83" style="fill:rgb(255,0,0);fill-opacity:0;stroke:rgb(255,0,0);stroke-width:2.67px;"/>
                        </g>
                        <g transform="matrix(0.997507,0,0,0.997507,4911.18,-1554.62)">
                            <circle cx="436.529" cy="2211.09" r="13.83" style="fill:rgb(255,0,0);fill-opacity:0;stroke:rgb(255,0,0);stroke-width:2.67px;"/>
                        </g>
                    </g>
                    <g transform="matrix(1,0,0,1,7.73783,74.9178)">
                        <g transform="matrix(0.997507,0,0,0.997507,4665.56,-1554.62)">
                            <circle cx="436.529" cy="2211.09" r="13.83" style="fill:rgb(255,0,0);fill-opacity:0;stroke:rgb(255,0,0);stroke-width:2.67px;"/>
                        </g>
                        <g transform="matrix(0.997507,0,0,0.997507,4702.07,-1554.62)">
                            <circle cx="436.529" cy="2211.09" r="13.83" style="fill:rgb(255,0,0);fill-opacity:0;stroke:rgb(255,0,0);stroke-width:2.67px;"/>
                        </g>
                        <g transform="matrix(0.997507,0,0,0.997507,4736.92,-1554.62)">
                            <circle cx="436.529" cy="2211.09" r="13.83" style="fill:rgb(255,0,0);fill-opacity:0;stroke:rgb(255,0,0);stroke-width:2.67px;"/>
                        </g>
                        <g transform="matrix(0.997507,0,0,0.997507,4771.77,-1554.62)">
                            <circle cx="436.529" cy="2211.09" r="13.83" style="fill:rgb(255,0,0);fill-opacity:0;stroke:rgb(255,0,0);stroke-width:2.67px;"/>
                        </g>
                        <g transform="matrix(0.997507,0,0,0.997507,4806.62,-1554.62)">
                            <circle cx="436.529" cy="2211.09" r="13.83" style="fill:rgb(255,0,0);fill-opacity:0;stroke:rgb(255,0,0);stroke-width:2.67px;"/>
                        </g>
                        <g transform="matrix(0.997507,0,0,0.997507,4841.47,-1554.62)">
                            <circle cx="436.529" cy="2211.09" r="13.83" style="fill:rgb(255,0,0);fill-opacity:0;stroke:rgb(255,0,0);stroke-width:2.67px;"/>
                        </g>
                        <g transform="matrix(0.997507,0,0,0.997507,4876.33,-1554.62)">
                            <circle cx="436.529" cy="2211.09" r="13.83" style="fill:rgb(255,0,0);fill-opacity:0;stroke:rgb(255,0,0);stroke-width:2.67px;"/>
                        </g>
                        <g transform="matrix(0.997507,0,0,0.997507,4911.18,-1554.62)">
                            <circle cx="436.529" cy="2211.09" r="13.83" style="fill:rgb(255,0,0);fill-opacity:0;stroke:rgb(255,0,0);stroke-width:2.67px;"/>
                        </g>
                    </g>
                    <g transform="matrix(1,0,0,1,7.73783,112.93)">
                        <g transform="matrix(0.997507,0,0,0.997507,4665.56,-1554.62)">
                            <circle cx="436.529" cy="2211.09" r="13.83" style="fill:rgb(255,0,0);fill-opacity:0;stroke:rgb(255,0,0);stroke-width:2.67px;"/>
                        </g>
                        <g transform="matrix(0.997507,0,0,0.997507,4702.07,-1554.62)">
                            <circle cx="436.529" cy="2211.09" r="13.83" style="fill:rgb(255,0,0);fill-opacity:0;stroke:rgb(255,0,0);stroke-width:2.67px;"/>
                        </g>
                        <g transform="matrix(0.997507,0,0,0.997507,4736.92,-1554.62)">
                            <circle cx="436.529" cy="2211.09" r="13.83" style="fill:rgb(255,0,0);fill-opacity:0;stroke:rgb(255,0,0);stroke-width:2.67px;"/>
                        </g>
                        <g transform="matrix(0.997507,0,0,0.997507,4771.77,-1554.62)">
                            <circle cx="436.529" cy="2211.09" r="13.83" style="fill:rgb(255,0,0);fill-opacity:0;stroke:rgb(255,0,0);stroke-width:2.67px;"/>
                        </g>
                        <g transform="matrix(0.997507,0,0,0.997507,4806.62,-1554.62)">
                            <circle cx="436.529" cy="2211.09" r="13.83" style="fill:rgb(255,0,0);fill-opacity:0;stroke:rgb(255,0,0);stroke-width:2.67px;"/>
                        </g>
                        <g transform="matrix(0.997507,0,0,0.997507,4841.47,-1554.62)">
                            <circle cx="436.529" cy="2211.09" r="13.83" style="fill:rgb(255,0,0);fill-opacity:0;stroke:rgb(255,0,0);stroke-width:2.67px;"/>
                        </g>
                        <g transform="matrix(0.997507,0,0,0.997507,4876.33,-1554.62)">
                            <circle cx="436.529" cy="2211.09" r="13.83" style="fill:rgb(255,0,0);fill-opacity:0;stroke:rgb(255,0,0);stroke-width:2.67px;"/>
                        </g>
                        <g transform="matrix(0.997507,0,0,0.997507,4911.18,-1554.62)">
                            <circle cx="436.529" cy="2211.09" r="13.83" style="fill:rgb(255,0,0);fill-opacity:0;stroke:rgb(255,0,0);stroke-width:2.67px;"/>
                        </g>
                    </g>
                    <g transform="matrix(1,0,0,1,7.73783,150.942)">
                        <g transform="matrix(0.997507,0,0,0.997507,4665.56,-1554.62)">
                            <circle cx="436.529" cy="2211.09" r="13.83" style="fill:rgb(255,0,0);fill-opacity:0;stroke:rgb(255,0,0);stroke-width:2.67px;"/>
                        </g>
                        <g transform="matrix(0.997507,0,0,0.997507,4702.07,-1554.62)">
                            <circle cx="436.529" cy="2211.09" r="13.83" style="fill:rgb(255,0,0);fill-opacity:0;stroke:rgb(255,0,0);stroke-width:2.67px;"/>
                        </g>
                        <g transform="matrix(0.997507,0,0,0.997507,4736.92,-1554.62)">
                            <circle cx="436.529" cy="2211.09" r="13.83" style="fill:rgb(255,0,0);fill-opacity:0;stroke:rgb(255,0,0);stroke-width:2.67px;"/>
                        </g>
                        <g transform="matrix(0.997507,0,0,0.997507,4771.77,-1554.62)">
                            <circle cx="436.529" cy="2211.09" r="13.83" style="fill:rgb(255,0,0);fill-opacity:0;stroke:rgb(255,0,0);stroke-width:2.67px;"/>
                        </g>
                        <g transform="matrix(0.997507,0,0,0.997507,4806.62,-1554.62)">
                            <circle cx="436.529" cy="2211.09" r="13.83" style="fill:rgb(255,0,0);fill-opacity:0;stroke:rgb(255,0,0);stroke-width:2.67px;"/>
                        </g>
                        <g transform="matrix(0.997507,0,0,0.997507,4841.47,-1554.62)">
                            <circle cx="436.529" cy="2211.09" r="13.83" style="fill:rgb(255,0,0);fill-opacity:0;stroke:rgb(255,0,0);stroke-width:2.67px;"/>
                        </g>
                        <g transform="matrix(0.997507,0,0,0.997507,4876.33,-1554.62)">
                            <circle cx="436.529" cy="2211.09" r="13.83" style="fill:rgb(255,0,0);fill-opacity:0;stroke:rgb(255,0,0);stroke-width:2.67px;"/>
                        </g>
                        <g transform="matrix(0.997507,0,0,0.997507,4911.18,-1554.62)">
                            <circle cx="436.529" cy="2211.09" r="13.83" style="fill:rgb(255,0,0);fill-opacity:0;stroke:rgb(255,0,0);stroke-width:2.67px;"/>
                        </g>
                    </g>
                    <g transform="matrix(1,0,0,1,7.73783,188.954)">
                        <g transform="matrix(0.997507,0,0,0.997507,4665.56,-1554.62)">
                            <circle cx="436.529" cy="2211.09" r="13.83" style="fill:rgb(255,0,0);fill-opacity:0;stroke:rgb(255,0,0);stroke-width:2.67px;"/>
                        </g>
                        <g transform="matrix(0.997507,0,0,0.997507,4702.07,-1554.62)">
                            <circle cx="436.529" cy="2211.09" r="13.83" style="fill:rgb(255,0,0);fill-opacity:0;stroke:rgb(255,0,0);stroke-width:2.67px;"/>
                        </g>
                        <g transform="matrix(0.997507,0,0,0.997507,4736.92,-1554.62)">
                            <circle cx="436.529" cy="2211.09" r="13.83" style="fill:rgb(255,0,0);fill-opacity:0;stroke:rgb(255,0,0);stroke-width:2.67px;"/>
                        </g>
                        <g transform="matrix(0.997507,0,0,0.997507,4771.77,-1554.62)">
                            <circle cx="436.529" cy="2211.09" r="13.83" style="fill:rgb(255,0,0);fill-opacity:0;stroke:rgb(255,0,0);stroke-width:2.67px;"/>
                        </g>
                        <g transform="matrix(0.997507,0,0,0.997507,4806.62,-1554.62)">
                            <circle cx="436.529" cy="2211.09" r="13.83" style="fill:rgb(255,0,0);fill-opacity:0;stroke:rgb(255,0,0);stroke-width:2.67px;"/>
                        </g>
                        <g transform="matrix(0.997507,0,0,0.997507,4841.47,-1554.62)">
                            <circle cx="436.529" cy="2211.09" r="13.83" style="fill:rgb(255,0,0);fill-opacity:0;stroke:rgb(255,0,0);stroke-width:2.67px;"/>
                        </g>
                        <g transform="matrix(0.997507,0,0,0.997507,4876.33,-1554.62)">
                            <circle cx="436.529" cy="2211.09" r="13.83" style="fill:rgb(255,0,0);fill-opacity:0;stroke:rgb(255,0,0);stroke-width:2.67px;"/>
                        </g>
                        <g transform="matrix(0.997507,0,0,0.997507,4911.18,-1554.62)">
                            <circle cx="436.529" cy="2211.09" r="13.83" style="fill:rgb(255,0,0);fill-opacity:0;stroke:rgb(255,0,0);stroke-width:2.67px;"/>
                        </g>
                    </g>
                    <g transform="matrix(1,0,0,1,7.73783,226.966)">
                        <g transform="matrix(0.997507,0,0,0.997507,4665.56,-1554.62)">
                            <circle cx="436.529" cy="2211.09" r="13.83" style="fill:rgb(255,0,0);fill-opacity:0;stroke:rgb(255,0,0);stroke-width:2.67px;"/>
                        </g>
                        <g transform="matrix(0.997507,0,0,0.997507,4702.07,-1554.62)">
                            <circle cx="436.529" cy="2211.09" r="13.83" style="fill:rgb(255,0,0);fill-opacity:0;stroke:rgb(255,0,0);stroke-width:2.67px;"/>
                        </g>
                        <g transform="matrix(0.997507,0,0,0.997507,4736.92,-1554.62)">
                            <circle cx="436.529" cy="2211.09" r="13.83" style="fill:rgb(255,0,0);fill-opacity:0;stroke:rgb(255,0,0);stroke-width:2.67px;"/>
                        </g>
                        <g transform="matrix(0.997507,0,0,0.997507,4771.77,-1554.62)">
                            <circle cx="436.529" cy="2211.09" r="13.83" style="fill:rgb(255,0,0);fill-opacity:0;stroke:rgb(255,0,0);stroke-width:2.67px;"/>
                        </g>
                        <g transform="matrix(0.997507,0,0,0.997507,4806.62,-1554.62)">
                            <circle cx="436.529" cy="2211.09" r="13.83" style="fill:rgb(255,0,0);fill-opacity:0;stroke:rgb(255,0,0);stroke-width:2.67px;"/>
                        </g>
                        <g transform="matrix(0.997507,0,0,0.997507,4841.47,-1554.62)">
                            <circle cx="436.529" cy="2211.09" r="13.83" style="fill:rgb(255,0,0);fill-opacity:0;stroke:rgb(255,0,0);stroke-width:2.67px;"/>
                        </g>
                        <g transform="matrix(0.997507,0,0,0.997507,4876.33,-1554.62)">
                            <circle cx="436.529" cy="2211.09" r="13.83" style="fill:rgb(255,0,0);fill-opacity:0;stroke:rgb(255,0,0);stroke-width:2.67px;"/>
                        </g>
                        <g transform="matrix(0.997507,0,0,0.997507,4911.18,-1554.62)">
                            <circle cx="436.529" cy="2211.09" r="13.83" style="fill:rgb(255,0,0);fill-opacity:0;stroke:rgb(255,0,0);stroke-width:2.67px;"/>
                        </g>
                    </g>
                    <g transform="matrix(1,0,0,1,7.73783,264.978)">
                        <g transform="matrix(0.997507,0,0,0.997507,4665.56,-1554.62)">
                            <circle cx="436.529" cy="2211.09" r="13.83" style="fill:rgb(255,0,0);fill-opacity:0;stroke:rgb(255,0,0);stroke-width:2.67px;"/>
                        </g>
                        <g transform="matrix(0.997507,0,0,0.997507,4702.07,-1554.62)">
                            <circle cx="436.529" cy="2211.09" r="13.83" style="fill:rgb(255,0,0);fill-opacity:0;stroke:rgb(255,0,0);stroke-width:2.67px;"/>
                        </g>
                        <g transform="matrix(0.997507,0,0,0.997507,4736.92,-1554.62)">
                            <circle cx="436.529" cy="2211.09" r="13.83" style="fill:rgb(255,0,0);fill-opacity:0;stroke:rgb(255,0,0);stroke-width:2.67px;"/>
                        </g>
                        <g transform="matrix(0.997507,0,0,0.997507,4771.77,-1554.62)">
                            <circle cx="436.529" cy="2211.09" r="13.83" style="fill:rgb(255,0,0);fill-opacity:0;stroke:rgb(255,0,0);stroke-width:2.67px;"/>
                        </g>
                        <g transform="matrix(0.997507,0,0,0.997507,4806.62,-1554.62)">
                            <circle cx="436.529" cy="2211.09" r="13.83" style="fill:rgb(255,0,0);fill-opacity:0;stroke:rgb(255,0,0);stroke-width:2.67px;"/>
                        </g>
                        <g transform="matrix(0.997507,0,0,0.997507,4841.47,-1554.62)">
                            <circle cx="436.529" cy="2211.09" r="13.83" style="fill:rgb(255,0,0);fill-opacity:0;stroke:rgb(255,0,0);stroke-width:2.67px;"/>
                        </g>
                        <g transform="matrix(0.997507,0,0,0.997507,4876.33,-1554.62)">
                            <circle cx="436.529" cy="2211.09" r="13.83" style="fill:rgb(255,0,0);fill-opacity:0;stroke:rgb(255,0,0);stroke-width:2.67px;"/>
                        </g>
                        <g transform="matrix(0.997507,0,0,0.997507,4911.18,-1554.62)">
                            <circle cx="436.529" cy="2211.09" r="13.83" style="fill:rgb(255,0,0);fill-opacity:0;stroke:rgb(255,0,0);stroke-width:2.67px;"/>
                        </g>
                    </g>
                </g>
                <g transform="matrix(1,0,0,1,4267.12,-1566.62)">
                    <path d="M805.691,1895.4L817.03,1895.4L817.03,1858.36L1111.83,1858.36L1111.83,1895.4L1123.17,1895.4L1123.17,1973.63L1111.83,1973.63L1111.83,2069.26L1123.17,2069.26L1123.17,2147.49L1111.83,2147.49L1111.83,2184.53L817.03,2184.53L817.03,2147.49L805.691,2147.49L805.691,2069.26L817.03,2069.26L817.03,1973.63L805.691,1973.63L805.691,1895.4Z" style="fill:rgb(255,0,0);fill-opacity:0;stroke:rgb(255,0,0);stroke-width:2.67px;"/>
                </g>
                <g transform="matrix(1,0,0,1,4267.12,-1229.7)">
                    <path d="M805.691,1895.4L817.03,1895.4L817.03,1858.36L1111.83,1858.36L1111.83,1895.4L1123.17,1895.4L1123.17,1973.63L1111.83,1973.63L1111.83,2069.26L1123.17,2069.26L1123.17,2147.49L1111.83,2147.49L1111.83,2184.53L817.03,2184.53L817.03,2147.49L805.691,2147.49L805.691,2069.26L817.03,2069.26L817.03,1973.63L805.691,1973.63L805.691,1895.4Z" style="fill:rgb(255,0,0);fill-opacity:0;stroke:rgb(255,0,0);stroke-width:2.67px;"/>
                </g>
            </g>
        </g>
    </g>
</svg>
